<mxfile host="Electron" modified="2023-08-09T05:32:02.577Z" agent="Mozilla/5.0 (Windows NT 10.0; Win64; x64) AppleWebKit/537.36 (KHTML, like Gecko) draw.io/21.6.5 Chrome/114.0.5735.243 Electron/25.3.1 Safari/537.36" etag="vCtDFRuzdnXeMidxYU1_" version="21.6.5" type="device">
  <diagram name="PÃ¡gina-1" id="3OLCUj1iRhap2eAB8WF4">
    <mxGraphModel dx="880" dy="532" grid="1" gridSize="10" guides="1" tooltips="1" connect="1" arrows="1" fold="1" page="1" pageScale="1" pageWidth="827" pageHeight="1169" math="0" shadow="0">
      <root>
        <mxCell id="0" />
        <mxCell id="1" parent="0" />
        <mxCell id="gPZpDExDmvd1531djofu-1" value="Autor" style="rounded=0;whiteSpace=wrap;html=1;" vertex="1" parent="1">
          <mxGeometry x="217.5" y="80" width="65" height="30" as="geometry" />
        </mxCell>
        <mxCell id="gPZpDExDmvd1531djofu-2" value="Libro" style="rounded=0;whiteSpace=wrap;html=1;" vertex="1" parent="1">
          <mxGeometry x="580" y="151.25" width="60" height="30" as="geometry" />
        </mxCell>
        <mxCell id="gPZpDExDmvd1531djofu-3" value="titulo" style="ellipse;whiteSpace=wrap;html=1;" vertex="1" parent="1">
          <mxGeometry x="670" y="110" width="50" height="30" as="geometry" />
        </mxCell>
        <mxCell id="gPZpDExDmvd1531djofu-4" value="codAutor_fk" style="ellipse;whiteSpace=wrap;html=1;" vertex="1" parent="1">
          <mxGeometry x="670" y="160" width="80" height="30" as="geometry" />
        </mxCell>
        <mxCell id="gPZpDExDmvd1531djofu-5" value="codLibro" style="ellipse;whiteSpace=wrap;html=1;fontStyle=4;fillColor=#60a917;fontColor=#ffffff;strokeColor=#2D7600;" vertex="1" parent="1">
          <mxGeometry x="570" y="91.25" width="80" height="30" as="geometry" />
        </mxCell>
        <mxCell id="gPZpDExDmvd1531djofu-6" value="autor" style="ellipse;whiteSpace=wrap;html=1;" vertex="1" parent="1">
          <mxGeometry x="215" y="20" width="70" height="30" as="geometry" />
        </mxCell>
        <mxCell id="gPZpDExDmvd1531djofu-7" value="codAutor" style="ellipse;whiteSpace=wrap;html=1;fontStyle=4;fillColor=#60a917;fontColor=#ffffff;strokeColor=#2D7600;" vertex="1" parent="1">
          <mxGeometry x="110" y="20" width="90" height="30" as="geometry" />
        </mxCell>
        <mxCell id="gPZpDExDmvd1531djofu-8" value="pertenecer&lt;br&gt;1:N" style="rhombus;whiteSpace=wrap;html=1;" vertex="1" parent="1">
          <mxGeometry x="375" y="65" width="85" height="60" as="geometry" />
        </mxCell>
        <mxCell id="gPZpDExDmvd1531djofu-11" value="" style="endArrow=none;html=1;rounded=0;entryX=0;entryY=0.5;entryDx=0;entryDy=0;exitX=1;exitY=0.75;exitDx=0;exitDy=0;" edge="1" parent="1" source="gPZpDExDmvd1531djofu-2" target="gPZpDExDmvd1531djofu-4">
          <mxGeometry width="50" height="50" relative="1" as="geometry">
            <mxPoint x="740" y="223.75" as="sourcePoint" />
            <mxPoint x="770" y="225" as="targetPoint" />
          </mxGeometry>
        </mxCell>
        <mxCell id="gPZpDExDmvd1531djofu-12" value="" style="endArrow=none;html=1;rounded=0;entryX=0;entryY=0.5;entryDx=0;entryDy=0;exitX=1;exitY=0.25;exitDx=0;exitDy=0;" edge="1" parent="1" source="gPZpDExDmvd1531djofu-2" target="gPZpDExDmvd1531djofu-3">
          <mxGeometry width="50" height="50" relative="1" as="geometry">
            <mxPoint x="480" y="341.25" as="sourcePoint" />
            <mxPoint x="530" y="291.25" as="targetPoint" />
          </mxGeometry>
        </mxCell>
        <mxCell id="gPZpDExDmvd1531djofu-13" value="" style="endArrow=none;html=1;rounded=0;entryX=0.5;entryY=1;entryDx=0;entryDy=0;exitX=0.5;exitY=0;exitDx=0;exitDy=0;" edge="1" parent="1" source="gPZpDExDmvd1531djofu-1" target="gPZpDExDmvd1531djofu-6">
          <mxGeometry width="50" height="50" relative="1" as="geometry">
            <mxPoint x="400" y="321.25" as="sourcePoint" />
            <mxPoint x="450" y="271.25" as="targetPoint" />
          </mxGeometry>
        </mxCell>
        <mxCell id="gPZpDExDmvd1531djofu-14" value="" style="endArrow=none;html=1;rounded=0;entryX=0.5;entryY=1;entryDx=0;entryDy=0;exitX=0;exitY=0;exitDx=0;exitDy=0;" edge="1" parent="1" source="gPZpDExDmvd1531djofu-1" target="gPZpDExDmvd1531djofu-7">
          <mxGeometry width="50" height="50" relative="1" as="geometry">
            <mxPoint x="400" y="321.25" as="sourcePoint" />
            <mxPoint x="450" y="271.25" as="targetPoint" />
          </mxGeometry>
        </mxCell>
        <mxCell id="gPZpDExDmvd1531djofu-15" value="" style="endArrow=none;html=1;rounded=0;entryX=0.5;entryY=1;entryDx=0;entryDy=0;exitX=0.5;exitY=0;exitDx=0;exitDy=0;" edge="1" parent="1" source="gPZpDExDmvd1531djofu-2" target="gPZpDExDmvd1531djofu-5">
          <mxGeometry width="50" height="50" relative="1" as="geometry">
            <mxPoint x="390" y="300" as="sourcePoint" />
            <mxPoint x="440" y="250" as="targetPoint" />
          </mxGeometry>
        </mxCell>
        <mxCell id="gPZpDExDmvd1531djofu-54" value="Editorial" style="rounded=0;whiteSpace=wrap;html=1;" vertex="1" parent="1">
          <mxGeometry x="217.5" y="150.63" width="65" height="30" as="geometry" />
        </mxCell>
        <mxCell id="gPZpDExDmvd1531djofu-56" value="codEditorial" style="ellipse;whiteSpace=wrap;html=1;fontStyle=4;fillColor=#60a917;fontColor=#ffffff;strokeColor=#2D7600;" vertex="1" parent="1">
          <mxGeometry x="110" y="131.88" width="90" height="30" as="geometry" />
        </mxCell>
        <mxCell id="gPZpDExDmvd1531djofu-57" value="" style="endArrow=none;html=1;rounded=0;entryX=1;entryY=0.5;entryDx=0;entryDy=0;exitX=0;exitY=0.75;exitDx=0;exitDy=0;" edge="1" parent="1" source="gPZpDExDmvd1531djofu-54" target="gPZpDExDmvd1531djofu-59">
          <mxGeometry width="50" height="50" relative="1" as="geometry">
            <mxPoint x="400" y="391.88" as="sourcePoint" />
            <mxPoint x="250" y="120.63" as="targetPoint" />
          </mxGeometry>
        </mxCell>
        <mxCell id="gPZpDExDmvd1531djofu-58" value="" style="endArrow=none;html=1;rounded=0;entryX=1;entryY=0.5;entryDx=0;entryDy=0;exitX=0;exitY=0;exitDx=0;exitDy=0;" edge="1" parent="1" source="gPZpDExDmvd1531djofu-54" target="gPZpDExDmvd1531djofu-56">
          <mxGeometry width="50" height="50" relative="1" as="geometry">
            <mxPoint x="400" y="391.88" as="sourcePoint" />
            <mxPoint x="450" y="341.88" as="targetPoint" />
          </mxGeometry>
        </mxCell>
        <mxCell id="gPZpDExDmvd1531djofu-59" value="editorial" style="ellipse;whiteSpace=wrap;html=1;" vertex="1" parent="1">
          <mxGeometry x="120" y="170.63" width="70" height="30" as="geometry" />
        </mxCell>
        <mxCell id="gPZpDExDmvd1531djofu-60" value="pertenecer&lt;br&gt;1:N" style="rhombus;whiteSpace=wrap;html=1;" vertex="1" parent="1">
          <mxGeometry x="375" y="135.63" width="85" height="60" as="geometry" />
        </mxCell>
        <mxCell id="gPZpDExDmvd1531djofu-61" value="codEditorial_fk" style="ellipse;whiteSpace=wrap;html=1;" vertex="1" parent="1">
          <mxGeometry x="670" y="200.63" width="100" height="30" as="geometry" />
        </mxCell>
        <mxCell id="gPZpDExDmvd1531djofu-62" value="" style="endArrow=none;html=1;rounded=0;entryX=0.5;entryY=1;entryDx=0;entryDy=0;exitX=0;exitY=0.5;exitDx=0;exitDy=0;" edge="1" parent="1" source="gPZpDExDmvd1531djofu-61" target="gPZpDExDmvd1531djofu-2">
          <mxGeometry width="50" height="50" relative="1" as="geometry">
            <mxPoint x="228" y="161" as="sourcePoint" />
            <mxPoint x="210" y="157" as="targetPoint" />
          </mxGeometry>
        </mxCell>
        <mxCell id="gPZpDExDmvd1531djofu-65" value="" style="endArrow=none;html=1;rounded=0;entryX=1;entryY=0.5;entryDx=0;entryDy=0;exitX=0;exitY=0.5;exitDx=0;exitDy=0;" edge="1" parent="1" source="gPZpDExDmvd1531djofu-2" target="gPZpDExDmvd1531djofu-60">
          <mxGeometry width="50" height="50" relative="1" as="geometry">
            <mxPoint x="680" y="226" as="sourcePoint" />
            <mxPoint x="620" y="191" as="targetPoint" />
          </mxGeometry>
        </mxCell>
        <mxCell id="gPZpDExDmvd1531djofu-66" value="" style="endArrow=none;html=1;rounded=0;entryX=1;entryY=0.5;entryDx=0;entryDy=0;exitX=0;exitY=0.5;exitDx=0;exitDy=0;" edge="1" parent="1" source="gPZpDExDmvd1531djofu-60" target="gPZpDExDmvd1531djofu-54">
          <mxGeometry width="50" height="50" relative="1" as="geometry">
            <mxPoint x="690" y="236" as="sourcePoint" />
            <mxPoint x="630" y="201" as="targetPoint" />
          </mxGeometry>
        </mxCell>
        <mxCell id="gPZpDExDmvd1531djofu-67" value="" style="endArrow=none;html=1;rounded=0;entryX=1;entryY=0.5;entryDx=0;entryDy=0;exitX=0;exitY=0;exitDx=0;exitDy=0;" edge="1" parent="1" source="gPZpDExDmvd1531djofu-2" target="gPZpDExDmvd1531djofu-8">
          <mxGeometry width="50" height="50" relative="1" as="geometry">
            <mxPoint x="700" y="246" as="sourcePoint" />
            <mxPoint x="640" y="211" as="targetPoint" />
          </mxGeometry>
        </mxCell>
        <mxCell id="gPZpDExDmvd1531djofu-68" value="" style="endArrow=none;html=1;rounded=0;entryX=1;entryY=0.5;entryDx=0;entryDy=0;exitX=0;exitY=0.5;exitDx=0;exitDy=0;" edge="1" parent="1" source="gPZpDExDmvd1531djofu-8" target="gPZpDExDmvd1531djofu-1">
          <mxGeometry width="50" height="50" relative="1" as="geometry">
            <mxPoint x="710" y="256" as="sourcePoint" />
            <mxPoint x="650" y="221" as="targetPoint" />
          </mxGeometry>
        </mxCell>
        <mxCell id="gPZpDExDmvd1531djofu-71" value="codAutor_fk" style="ellipse;whiteSpace=wrap;html=1;" vertex="1" parent="1">
          <mxGeometry x="570" y="236.88" width="80" height="30" as="geometry" />
        </mxCell>
        <mxCell id="gPZpDExDmvd1531djofu-73" value="" style="endArrow=none;html=1;rounded=0;entryX=0;entryY=0.5;entryDx=0;entryDy=0;exitX=1;exitY=0.5;exitDx=0;exitDy=0;" edge="1" parent="1" source="gPZpDExDmvd1531djofu-79" target="gPZpDExDmvd1531djofu-71">
          <mxGeometry width="50" height="50" relative="1" as="geometry">
            <mxPoint x="730" y="239.38" as="sourcePoint" />
            <mxPoint x="860" y="290.63" as="targetPoint" />
          </mxGeometry>
        </mxCell>
        <mxCell id="gPZpDExDmvd1531djofu-74" value="" style="endArrow=none;html=1;rounded=0;entryX=0.5;entryY=1;entryDx=0;entryDy=0;exitX=0.5;exitY=0;exitDx=0;exitDy=0;" edge="1" parent="1" source="gPZpDExDmvd1531djofu-81" target="gPZpDExDmvd1531djofu-79">
          <mxGeometry width="50" height="50" relative="1" as="geometry">
            <mxPoint x="730" y="224.38" as="sourcePoint" />
            <mxPoint x="760" y="190.63" as="targetPoint" />
          </mxGeometry>
        </mxCell>
        <mxCell id="gPZpDExDmvd1531djofu-75" value="" style="endArrow=none;html=1;rounded=0;entryX=0.5;entryY=0;entryDx=0;entryDy=0;exitX=0;exitY=1;exitDx=0;exitDy=0;" edge="1" parent="1" source="gPZpDExDmvd1531djofu-79" target="gPZpDExDmvd1531djofu-82">
          <mxGeometry width="50" height="50" relative="1" as="geometry">
            <mxPoint x="700" y="216.88" as="sourcePoint" />
            <mxPoint x="700" y="186.88" as="targetPoint" />
          </mxGeometry>
        </mxCell>
        <mxCell id="gPZpDExDmvd1531djofu-76" value="codEditorial_fk" style="ellipse;whiteSpace=wrap;html=1;" vertex="1" parent="1">
          <mxGeometry x="550" y="276.88" width="100" height="30" as="geometry" />
        </mxCell>
        <mxCell id="gPZpDExDmvd1531djofu-77" value="" style="endArrow=none;html=1;rounded=0;entryX=0.838;entryY=0.728;entryDx=0;entryDy=0;exitX=0;exitY=0.5;exitDx=0;exitDy=0;entryPerimeter=0;" edge="1" parent="1" source="gPZpDExDmvd1531djofu-76" target="gPZpDExDmvd1531djofu-79">
          <mxGeometry width="50" height="50" relative="1" as="geometry">
            <mxPoint x="318" y="226.63" as="sourcePoint" />
            <mxPoint x="700" y="246.88" as="targetPoint" />
          </mxGeometry>
        </mxCell>
        <mxCell id="gPZpDExDmvd1531djofu-79" value="Prestar&lt;br&gt;N:M" style="rhombus;whiteSpace=wrap;html=1;" vertex="1" parent="1">
          <mxGeometry x="450" y="200.63" width="80" height="80" as="geometry" />
        </mxCell>
        <mxCell id="gPZpDExDmvd1531djofu-81" value="fechaDev" style="ellipse;whiteSpace=wrap;html=1;" vertex="1" parent="1">
          <mxGeometry x="465" y="306.88" width="60" height="30" as="geometry" />
        </mxCell>
        <mxCell id="gPZpDExDmvd1531djofu-82" value="codPrestamo" style="ellipse;whiteSpace=wrap;html=1;fontStyle=4;fillColor=#60a917;fontColor=#ffffff;strokeColor=#2D7600;" vertex="1" parent="1">
          <mxGeometry x="350" y="276.88" width="90" height="30" as="geometry" />
        </mxCell>
        <mxCell id="gPZpDExDmvd1531djofu-83" value="" style="endArrow=none;html=1;rounded=0;entryX=1;entryY=0;entryDx=0;entryDy=0;exitX=0;exitY=0.75;exitDx=0;exitDy=0;" edge="1" parent="1" source="gPZpDExDmvd1531djofu-2" target="gPZpDExDmvd1531djofu-79">
          <mxGeometry width="50" height="50" relative="1" as="geometry">
            <mxPoint x="590" y="190" as="sourcePoint" />
            <mxPoint x="470" y="176" as="targetPoint" />
          </mxGeometry>
        </mxCell>
        <mxCell id="gPZpDExDmvd1531djofu-84" value="Lector" style="rounded=0;whiteSpace=wrap;html=1;" vertex="1" parent="1">
          <mxGeometry x="276.25" y="230.63" width="65" height="30" as="geometry" />
        </mxCell>
        <mxCell id="gPZpDExDmvd1531djofu-85" value="codLector" style="ellipse;whiteSpace=wrap;html=1;fontStyle=4;fillColor=#60a917;fontColor=#ffffff;strokeColor=#2D7600;" vertex="1" parent="1">
          <mxGeometry x="168.75" y="211.88" width="90" height="30" as="geometry" />
        </mxCell>
        <mxCell id="gPZpDExDmvd1531djofu-86" value="" style="endArrow=none;html=1;rounded=0;entryX=1;entryY=0.5;entryDx=0;entryDy=0;exitX=0;exitY=0.75;exitDx=0;exitDy=0;" edge="1" parent="1" source="gPZpDExDmvd1531djofu-84" target="gPZpDExDmvd1531djofu-88">
          <mxGeometry width="50" height="50" relative="1" as="geometry">
            <mxPoint x="458.75" y="471.88" as="sourcePoint" />
            <mxPoint x="308.75" y="200.63" as="targetPoint" />
          </mxGeometry>
        </mxCell>
        <mxCell id="gPZpDExDmvd1531djofu-87" value="" style="endArrow=none;html=1;rounded=0;entryX=1;entryY=0.5;entryDx=0;entryDy=0;exitX=0;exitY=0;exitDx=0;exitDy=0;" edge="1" parent="1" source="gPZpDExDmvd1531djofu-84" target="gPZpDExDmvd1531djofu-85">
          <mxGeometry width="50" height="50" relative="1" as="geometry">
            <mxPoint x="458.75" y="471.88" as="sourcePoint" />
            <mxPoint x="508.75" y="421.88" as="targetPoint" />
          </mxGeometry>
        </mxCell>
        <mxCell id="gPZpDExDmvd1531djofu-88" value="nombreLector" style="ellipse;whiteSpace=wrap;html=1;" vertex="1" parent="1">
          <mxGeometry x="158.75" y="250.63" width="90" height="30" as="geometry" />
        </mxCell>
        <mxCell id="gPZpDExDmvd1531djofu-89" value="" style="endArrow=none;html=1;rounded=0;entryX=1;entryY=0.25;entryDx=0;entryDy=0;exitX=0;exitY=0.5;exitDx=0;exitDy=0;" edge="1" parent="1" source="gPZpDExDmvd1531djofu-79" target="gPZpDExDmvd1531djofu-84">
          <mxGeometry width="50" height="50" relative="1" as="geometry">
            <mxPoint x="374.5" y="251.38" as="sourcePoint" />
            <mxPoint x="282.5" y="251.38" as="targetPoint" />
          </mxGeometry>
        </mxCell>
      </root>
    </mxGraphModel>
  </diagram>
</mxfile>
